<svg xmlns="http://www.w3.org/2000/svg" width="30" height="30" fill="none" viewBox="0 0 30 30">
  <path fill="#717171" d="M15 27.5c-1.73 0-3.354-.328-4.875-.985a12.644 12.644 0 0 1-3.969-2.671 12.615 12.615 0 0 1-2.671-3.969c-.656-1.52-.984-3.146-.985-4.875 0-1.73.328-3.354.985-4.875a12.643 12.643 0 0 1 2.671-3.969 12.614 12.614 0 0 1 3.969-2.671c1.52-.656 3.146-.984 4.875-.985 1.73 0 3.354.328 4.875.985a12.643 12.643 0 0 1 3.969 2.671 12.63 12.63 0 0 1 2.672 3.969c.657 1.52.985 3.146.984 4.875 0 1.73-.328 3.354-.985 4.875a12.645 12.645 0 0 1-2.671 3.969 12.631 12.631 0 0 1-3.969 2.672c-1.52.657-3.146.985-4.875.984Zm0-2.5c2.792 0 5.156-.969 7.094-2.906C24.03 20.156 25 17.792 25 15a9.757 9.757 0 0 0-.547-3.25 9.979 9.979 0 0 0-1.578-2.875l-14 14a9.952 9.952 0 0 0 2.875 1.579A9.736 9.736 0 0 0 15 25Zm-7.875-3.875 14-14a9.926 9.926 0 0 0-2.875-1.577A9.8 9.8 0 0 0 15 5c-2.792 0-5.156.969-7.094 2.906C5.97 9.844 5 12.208 5 15c0 1.125.182 2.208.546 3.25.364 1.042.89 2 1.579 2.875Z"/>
</svg>
