<svg xmlns="http://www.w3.org/2000/svg" width="30" height="30" fill="none" viewBox="0 0 30 30">
  <path fill="#717171" d="M22.5 2.5h-15a3.75 3.75 0 0 0-3.75 3.75V20a3.75 3.75 0 0 0 3.75 3.75h3.238l3.375 3.387A1.249 1.249 0 0 0 15 27.5c.298 0 .586-.106.813-.3l4.024-3.45H22.5A3.75 3.75 0 0 0 26.25 20V6.25A3.75 3.75 0 0 0 22.5 2.5ZM23.75 20a1.25 1.25 0 0 1-1.25 1.25h-3.125a1.25 1.25 0 0 0-.813.3l-3.5 3-2.925-2.938a1.25 1.25 0 0 0-.887-.362H7.5A1.25 1.25 0 0 1 6.25 20V6.25A1.25 1.25 0 0 1 7.5 5h15a1.25 1.25 0 0 1 1.25 1.25V20Z"/>
</svg>
