<svg xmlns="http://www.w3.org/2000/svg" width="30" height="30" fill="none" viewBox="0 0 30 30">
  <path fill="#717171" d="M7.5 10a2.5 2.5 0 1 1 5 0 2.5 2.5 0 0 1-5 0ZM10 5a5 5 0 1 0 0 10 5 5 0 0 0 0-10Zm10 6.25a1.25 1.25 0 1 1 2.5 0 1.25 1.25 0 0 1-2.5 0Zm1.25-3.75a3.75 3.75 0 1 0 0 7.5 3.75 3.75 0 0 0 0-7.5ZM2.5 20.625C2.5 18.9 3.9 17.5 5.625 17.5h8.75c1.725 0 3.125 1.4 3.125 3.125v.12a4.63 4.63 0 0 1-.133.922 5.45 5.45 0 0 1-.887 1.92c-1.06 1.458-3.035 2.663-6.48 2.663-3.445 0-5.42-1.205-6.48-2.663a5.45 5.45 0 0 1-1-2.57 3.734 3.734 0 0 1-.02-.274v-.118Zm2.5.065c.01.131.031.262.063.39.067.283.205.66.48 1.038.5.69 1.65 1.632 4.457 1.632 2.805 0 3.955-.942 4.457-1.633.303-.419.49-.91.543-1.425v-.067a.624.624 0 0 0-.625-.625h-8.75a.625.625 0 0 0-.625.625v.065ZM21.247 25a10.072 10.072 0 0 1-2.332-.25 7.16 7.16 0 0 0 .957-2.355c.388.065.843.105 1.375.105 2.226 0 3.07-.68 3.4-1.093.184-.228.305-.5.35-.79v-.012a.625.625 0 0 0-.625-.605h-4.407a5.593 5.593 0 0 0-.913-2.5h5.323c1.725 0 3.125 1.4 3.125 3.125v.043a2.478 2.478 0 0 1-.017.232 4.183 4.183 0 0 1-.88 2.068C25.68 24.117 24.026 25 21.25 25h-.003Z"/>
</svg>
