<svg xmlns="http://www.w3.org/2000/svg" width="30" height="30" fill="none" viewBox="0 0 30 30">
  <path fill="#717171" d="M13.594 15a1.406 1.406 0 1 0 2.812 0 1.406 1.406 0 0 0-2.812 0Zm5.859 0a1.407 1.407 0 1 0 2.813 0 1.407 1.407 0 0 0-2.813 0ZM7.734 15a1.406 1.406 0 1 0 2.813 0 1.406 1.406 0 0 0-2.813 0Zm19.371-5.086a13.128 13.128 0 0 0-2.82-4.198 13.018 13.018 0 0 0-4.2-2.821A13.063 13.063 0 0 0 15 1.875h-.059A13.094 13.094 0 0 0 5.67 5.754a13.006 13.006 0 0 0-2.79 4.184 13.13 13.13 0 0 0-1.004 5.123c.01 2.035.491 4.04 1.406 5.857v4.453A1.348 1.348 0 0 0 4.63 26.72h4.456a13.166 13.166 0 0 0 5.856 1.406h.062c1.755 0 3.457-.34 5.06-1.005a13.023 13.023 0 0 0 4.183-2.789 13.095 13.095 0 0 0 3.879-9.272 13.076 13.076 0 0 0-1.02-5.145ZM22.68 22.746A10.84 10.84 0 0 1 15 25.898h-.049a10.937 10.937 0 0 1-5.071-1.274l-.246-.132H5.508v-4.125l-.132-.246A10.937 10.937 0 0 1 4.1 15.05a10.831 10.831 0 0 1 3.154-7.73 10.816 10.816 0 0 1 7.699-3.22h.05c1.465 0 2.886.285 4.224.847a10.829 10.829 0 0 1 3.487 2.344 10.853 10.853 0 0 1 3.19 7.758 10.857 10.857 0 0 1-3.225 7.696Z"/>
</svg>
