<svg xmlns="http://www.w3.org/2000/svg" width="30" height="30" fill="none" viewBox="0 0 30 30">
  <path fill="#717171" d="M15 2.5a5 5 0 1 0 0 10 5 5 0 0 0 0-10Zm-2.5 5a2.5 2.5 0 1 1 5 0 2.5 2.5 0 0 1-5 0Zm8.75 7.5H8.75A3.75 3.75 0 0 0 5 18.75c0 2.79 1.147 5.025 3.03 6.538C9.883 26.775 12.368 27.5 15 27.5c2.633 0 5.117-.725 6.97-2.212C23.85 23.775 25 21.54 25 18.75A3.75 3.75 0 0 0 21.25 15Zm-12.5 2.5h12.5a1.25 1.25 0 0 1 1.25 1.25c0 2.043-.813 3.558-2.095 4.587C19.09 24.392 17.2 25 15 25s-4.09-.608-5.405-1.663C8.312 22.307 7.5 20.793 7.5 18.75a1.25 1.25 0 0 1 1.25-1.25Z"/>
</svg>
