<svg xmlns="http://www.w3.org/2000/svg" width="30" height="32" fill="none" viewBox="0 0 30 32">
  <g clip-path="url(#a)">
    <path fill="#717171" stroke="#717171" stroke-linejoin="round" d="M.51 24.983a10.898 10.898 0 0 1 2.021-5.886c.66-.921 1.44-1.74 2.343-2.457a10.68 10.68 0 0 1 3.046-1.682.5.5 0 0 0 .1-.892c-1.114-.714-1.972-1.606-2.586-2.676-.611-1.064-.924-2.245-.934-3.55a7 7 0 0 1 .583-2.846A7.543 7.543 0 0 1 6.68 2.652a7.361 7.361 0 0 1 2.386-1.578A7.537 7.537 0 0 1 12 .5c1.04 0 2.01.192 2.915.573a7.75 7.75 0 0 1 2.394 1.568 7.19 7.19 0 0 1 1.607 2.336c.389.895.584 1.848.584 2.864 0 .632-.078 1.248-.234 1.85a6.675 6.675 0 0 1-.698 1.696 8.301 8.301 0 0 1-1.105 1.488c-.415.444-.905.84-1.473 1.185a.5.5 0 0 0 .084.895 11.629 11.629 0 0 1 5.426 4.192v1.942a10.463 10.463 0 0 0-2.859-3.591 10.53 10.53 0 0 0-3.066-1.705A10.527 10.527 0 0 0 12 15.182c-.96 0-1.89.123-2.789.37-.892.245-1.727.587-2.504 1.027a9.902 9.902 0 0 0-2.123 1.613 10.865 10.865 0 0 0-1.637 2.086 10.15 10.15 0 0 0-1.068 2.464 9.83 9.83 0 0 0-.367 2.241H.51Zm24.99.5a.5.5 0 0 0 .5.5h3.5v.96H26a.5.5 0 0 0-.5.5v3.42h-1v-3.42a.5.5 0 0 0-.5-.5h-3.5v-.96H24a.5.5 0 0 0 .5-.5v-3.42h1v3.42ZM5.5 7.841c0 .882.17 1.712.512 2.484.337.76.8 1.435 1.385 2.02a6.4 6.4 0 0 0 2.066 1.378 6.488 6.488 0 0 0 2.537.499 6.45 6.45 0 0 0 2.522-.499 6.529 6.529 0 0 0 2.062-1.36 6.615 6.615 0 0 0 1.403-2.02c.354-.782.524-1.62.513-2.505 0-.872-.17-1.7-.51-2.48a6.397 6.397 0 0 0-1.39-2.024 6.697 6.697 0 0 0-2.075-1.374 6.171 6.171 0 0 0-2.528-.5 6.37 6.37 0 0 0-2.521.5c-.774.33-1.46.781-2.057 1.355a6.23 6.23 0 0 0-1.41 2.046 6.204 6.204 0 0 0-.509 2.48Z"/>
  </g>
  <defs>
    <clipPath id="a">
      <path fill="#fff" d="M0 0h30v31.364H0z"/>
    </clipPath>
  </defs>
</svg>
