<svg xmlns="http://www.w3.org/2000/svg" width="30" height="30" fill="none" viewBox="0 0 30 30">
  <path fill="#4D4D4D" d="m24.5 26.25-7.875-7.875A7.618 7.618 0 0 1 11.875 20c-2.27 0-4.192-.787-5.765-2.36-1.573-1.573-2.36-3.495-2.36-5.765 0-2.27.787-4.192 2.36-5.765 1.573-1.573 3.495-2.36 5.765-2.36 2.27 0 4.192.787 5.765 2.36C19.212 7.683 20 9.605 20 11.875a7.618 7.618 0 0 1-1.625 4.75L26.25 24.5l-1.75 1.75ZM11.875 17.5c1.563 0 2.89-.547 3.985-1.641 1.094-1.094 1.64-2.422 1.64-3.984 0-1.563-.547-2.89-1.641-3.985-1.094-1.094-2.422-1.64-3.984-1.64-1.563 0-2.89.547-3.985 1.641-1.094 1.094-1.64 2.422-1.64 3.984 0 1.563.547 2.89 1.641 3.985 1.094 1.094 2.422 1.64 3.984 1.64Z"/>
</svg>
