<svg xmlns="http://www.w3.org/2000/svg" width="30" height="30" fill="none" viewBox="0 0 30 30">
  <path fill="#717171" d="M25.031 6.688h-4.218V5.28A3.281 3.281 0 0 0 17.53 2h-5.625a3.281 3.281 0 0 0-3.281 3.281v1.407H4.406a1.406 1.406 0 0 0 0 2.812h.469v15.938a2.344 2.344 0 0 0 2.344 2.343h15a2.344 2.344 0 0 0 2.343-2.343V9.5h.47a1.406 1.406 0 1 0 0-2.813ZM11.438 5.28a.469.469 0 0 1 .468-.468h5.625A.469.469 0 0 1 18 5.28v1.407h-6.563V5.28ZM21.75 24.97H7.687V9.5H21.75v15.469Zm-8.438-11.72v7.5a1.407 1.407 0 0 1-2.812 0v-7.5a1.407 1.407 0 0 1 2.813 0Zm5.626 0v7.5a1.407 1.407 0 0 1-2.813 0v-7.5a1.407 1.407 0 0 1 2.813 0Z"/>
</svg>
